<svg width="124" height="123" viewBox="0 0 124 123" fill="none" xmlns="http://www.w3.org/2000/svg">
<g filter="url(#filter0_d_1_2872)">
<rect x="30.5" y="12" width="63" height="63" rx="15.375" fill="white" shape-rendering="crispEdges"/>
<rect x="31.0125" y="12.5125" width="61.975" height="61.975" rx="14.8625" stroke="#E0E0E9" stroke-width="1.025" shape-rendering="crispEdges"/>
<path d="M70.4876 50.0846C70.1311 50.9082 69.7091 51.6664 69.2202 52.3634C68.5537 53.3137 68.008 53.9714 67.5874 54.3367C66.9355 54.9362 66.237 55.2433 65.489 55.2607C64.9521 55.2607 64.3045 55.1079 63.5507 54.798C62.7944 54.4895 62.0994 54.3367 61.4639 54.3367C60.7975 54.3367 60.0827 54.4895 59.3181 54.798C58.5524 55.1079 57.9355 55.2695 57.4639 55.2855C56.7466 55.316 56.0317 55.0003 55.318 54.3367C54.8626 53.9394 54.2928 53.2584 53.6104 52.2936C52.8781 51.2633 52.2761 50.0686 51.8044 48.7065C51.2993 47.2353 51.0461 45.8106 51.0461 44.4314C51.0461 42.8515 51.3875 41.4888 52.0713 40.347C52.6087 39.4297 53.3237 38.7062 54.2185 38.1751C55.1133 37.6439 56.0801 37.3732 57.1213 37.3559C57.691 37.3559 58.4381 37.5322 59.3666 37.8785C60.2924 38.226 60.8868 38.4022 61.1474 38.4022C61.3423 38.4022 62.0027 38.1962 63.1221 37.7854C64.1808 37.4044 65.0743 37.2466 65.8063 37.3088C67.7897 37.4689 69.2798 38.2507 70.2708 39.6594C68.4969 40.7342 67.6194 42.2396 67.6369 44.1708C67.6529 45.675 68.1986 46.9268 69.2711 47.9207C69.7571 48.382 70.2999 48.7385 70.9038 48.9917C70.7729 49.3715 70.6346 49.7353 70.4876 50.0846ZM65.9387 32.1841C65.9387 33.3632 65.5079 34.464 64.6494 35.4829C63.6133 36.6942 62.3601 37.3942 61.001 37.2838C60.9837 37.1423 60.9737 36.9934 60.9737 36.837C60.9737 35.7051 61.4664 34.4938 62.3414 33.5034C62.7783 33.002 63.3339 32.585 64.0076 32.2524C64.6799 31.9247 65.3159 31.7435 65.9139 31.7125C65.9314 31.8701 65.9387 32.0278 65.9387 32.1841V32.1841Z" fill="black"/>
</g>
<defs>
<filter id="filter0_d_1_2872" x="0.5" y="0" width="123" height="123" filterUnits="userSpaceOnUse" color-interpolation-filters="sRGB">
<feFlood flood-opacity="0" result="BackgroundImageFix"/>
<feColorMatrix in="SourceAlpha" type="matrix" values="0 0 0 0 0 0 0 0 0 0 0 0 0 0 0 0 0 0 127 0" result="hardAlpha"/>
<feOffset dy="18"/>
<feGaussianBlur stdDeviation="15"/>
<feComposite in2="hardAlpha" operator="out"/>
<feColorMatrix type="matrix" values="0 0 0 0 0.266667 0 0 0 0 0.380392 0 0 0 0 0.94902 0 0 0 0.11 0"/>
<feBlend mode="normal" in2="BackgroundImageFix" result="effect1_dropShadow_1_2872"/>
<feBlend mode="normal" in="SourceGraphic" in2="effect1_dropShadow_1_2872" result="shape"/>
</filter>
</defs>
</svg>
